<svg xmlns="http://www.w3.org/2000/svg" viewBox="0 0 455.634 455.634" width="512" height="512"><path class="audio-icon" d="M448.838 281.276c-5.233-1.773-10.908 1.033-12.679 6.265-4.786 14.133-13.671 21.004-27.165 21.004-13.076 0-25.091-9.54-29.899-23.738-1.414-4.177-5.319-6.799-9.498-6.787a8.017 8.017 0 0 0-.155-.004l-.125.003c-4.185-.018-8.097 2.606-9.513 6.788-4.808 14.199-16.823 23.738-29.898 23.738-13.076 0-25.091-9.54-29.899-23.738-1.414-4.177-5.319-6.799-9.498-6.787l-.155-.004-.125.003c-4.185-.018-8.097 2.606-9.512 6.788-4.808 14.199-16.823 23.738-29.898 23.738-10.204 0-19.745-5.826-25.736-15.125-.147-.422-.313-.84-.521-1.25-18.79-36.956-18.596-71.524-8.2-98.824.156-.282.32-.556.45-.857.038-.087 3.857-8.792 11.222-15.779 8.736-8.288 18.34-10.431 29.362-6.551 10.022 3.528 12.84 8.78 14.194 11.304 3.24 6.038 7.692 6.88 10.854 6.521 3.264-.369 7.234-2.542 8.738-7.522 3.585-11.007 4.727-31.094-8.606-45.72 18.768-2.962 39.764 1.82 59.161 20.666l.173.164c1.5 1.389 6.917 5.76 13.675 3.637 6.024-1.895 9.368-8.04 8.319-15.292l-.075-.521-.13-.511c-.301-1.185-7.646-29.315-31.174-54.028-21.845-22.946-62.082-47.142-129.717-32.111-33.124 7.361-62.049 24.337-85.971 50.456-18.844 20.574-34.316 46.911-46.761 77.973-23.588 58.87-24.036 107.329-23.545 108.78 7.552 22.306 23.927 34.59 46.108 34.59 15.419 0 29.806-7.609 39.545-20.048 9.738 12.439 24.125 20.048 39.544 20.048s29.806-7.609 39.545-20.048c9.739 12.439 24.126 20.048 39.545 20.048s29.806-7.609 39.544-20.048c9.739 12.439 24.126 20.048 39.545 20.048s29.806-7.609 39.544-20.048c9.739 12.439 24.126 20.048 39.545 20.048 22.181 0 38.556-12.284 46.108-34.59 1.77-5.232-1.035-10.908-6.266-12.679zM271.695 154.647a54.554 54.554 0 0 0-7.662-3.354c-4.674-1.645-9.322-2.598-13.89-2.881a80.712 80.712 0 0 1 9.629-5.978c5.9 2.881 9.844 6.914 11.923 12.213zm-99.967 153.898c-13.076 0-25.091-9.54-29.898-23.738-1.414-4.177-5.318-6.799-9.498-6.787l-.155-.004-.126.003c-4.185-.018-8.097 2.606-9.513 6.788-4.808 14.199-16.823 23.738-29.899 23.738-13.033 0-21.755-6.431-26.649-19.604.201-2.74 3.79-48.088 22.71-96.482 25.532-65.305 65.382-104.396 118.444-116.188 46.65-10.368 83.776-1.682 110.352 25.813 7.411 7.667 12.984 15.831 17.076 23.108-30.53-17.129-66.477-14.869-96.907 7.557-17.419 12.836-30.92 30.8-39.164 51.692l-.09.207c-.044.104-.075.21-.115.314a128.52 128.52 0 0 0-5.526 17.887c-6.318 27.522-3.61 56.563 7.772 84.78-5.366 12.623-16.626 20.916-28.814 20.916zm231.11 47.731c-5.231-1.773-10.908 1.033-12.679 6.265-4.786 14.133-13.671 21.004-27.165 21.004-13.076 0-25.091-9.54-29.899-23.738-1.415-4.178-5.322-6.802-9.504-6.788a3.41 3.41 0 0 0-.143-.003l-.138.003c-4.182-.015-8.091 2.609-9.506 6.788-4.808 14.199-16.823 23.738-29.898 23.738-13.076 0-25.091-9.54-29.899-23.738-1.415-4.178-5.323-6.802-9.504-6.788a3.447 3.447 0 0 0-.282 0c-4.183-.015-8.091 2.609-9.506 6.788-4.808 14.199-16.823 23.738-29.898 23.738-13.076 0-25.091-9.54-29.899-23.738-1.415-4.179-5.322-6.802-9.504-6.788a3.41 3.41 0 0 0-.143-.003l-.138.003c-4.183-.015-8.091 2.608-9.507 6.788-4.808 14.199-16.823 23.738-29.899 23.738s-25.091-9.54-29.898-23.738c-1.415-4.179-5.323-6.802-9.505-6.788a3.41 3.41 0 0 0-.143-.003l-.138.003c-4.183-.016-8.091 2.608-9.506 6.788-4.808 14.199-16.823 23.738-29.899 23.738-13.494 0-22.379-6.871-27.165-21.004-1.771-5.231-7.446-8.037-12.679-6.265-5.231 1.771-8.036 7.447-6.265 12.679 7.552 22.306 23.927 34.59 46.108 34.59 15.419 0 29.806-7.609 39.545-20.048 9.738 12.439 24.125 20.048 39.544 20.048s29.806-7.609 39.545-20.048c9.739 12.439 24.126 20.048 39.545 20.048s29.806-7.609 39.544-20.048c9.739 12.439 24.126 20.048 39.545 20.048s29.806-7.609 39.544-20.048c9.739 12.439 24.126 20.048 39.545 20.048 22.181 0 38.556-12.284 46.108-34.59 1.772-5.232-1.033-10.908-6.264-12.679z" fill="#FFF"/></svg>