<svg xmlns="http://www.w3.org/2000/svg" viewBox="0 0 358.574 358.574" width="512" height="512"><path class="audio-icon" d="M349.392 188.25c-2.426-.821-8.947-3.453-10.738-6.017-.285-.407-.728-1.284-1.289-2.394-3.296-6.524-11.016-21.802-26.605-21.802-2.451 0-5.021.387-7.64 1.151-14.655 4.276-21.688 13.998-26.822 21.096-2.957 4.088-5.293 7.317-7.924 7.822-.828.159-1.604.239-2.308.239-2.51 0-3.916-.954-4.179-2.836-.988-7.069-.762-15.884-.523-25.217.395-15.439.842-32.938-4.291-46.667-8.368-22.384-27.05-40.417-42.062-54.906-3.751-3.621-7.294-7.041-10.332-10.185-1.167-1.441-2.38-2.752-3.553-4.021-1.703-1.841-3.312-3.58-4.486-5.411-5.038-7.854-8.567-16.764-11.617-25.18-.289-.921-.576-1.85-.86-2.788-.456-1.503-.958-2.649-1.533-3.499C180.969 3.657 179.012 0 175.992 0c-.471 0-.955.092-1.436.274-5.193 1.964-6.333 12.733-7.34 22.235-.517 4.88-1.005 9.49-1.956 11.755-1.228 2.925-3.132 4.655-5.148 6.485-2.384 2.165-4.849 4.403-6.003 8.625-1.154 4.218.002 6.646 1.121 8.993.941 1.977 1.831 3.843 1.347 6.955-.507 3.266-2.082 5.03-3.749 6.899-1.777 1.992-3.616 4.052-3.929 7.821-.324 3.892 1.723 6.419 3.703 8.864 1.731 2.137 3.366 4.156 3.326 7.028-.034 2.437-1.478 3.65-3.305 5.186-2.394 2.011-5.373 4.514-4.396 10.538.646 3.98 3.274 6.058 5.593 7.891 2.23 1.763 3.593 2.946 3.494 4.957-.075 1.529-.546 3.163-1.044 4.892-1.19 4.128-2.539 8.807.952 13.935 1.258 1.848 5.446 5.553 10.098 9.346-12.772-5.85-31.741-13.234-51.577-16.347-32.537-5.105-64.092-17.726-81.045-24.507-7.98-3.192-11.569-4.604-12.984-4.604-.917 0-1.219.563-1.307.806-.337.933.472 1.811 2.414 3.424l5.224 4.335c7.007 5.81 12.506 10.369 14.843 12.663-1.142-.406-2.777-1.072-4.896-1.992-1.119-.486-2.018-.294-2.515.431-.239.349-.355.79-.355 1.347 0 6.184 17.809 36.595 42.411 65.938 17.756 21.176 51.869 56.702 80.841 56.702 1.729 0 3.43-.127 5.085-.379-11.521 11.92-53.4 43.329-90.531 58.741-44.868 18.624-65.123 28.194-66.54 35.67-.322 1.699.266 3.287 1.748 4.719 1.973 1.906 3.814 2.793 5.795 2.793 1.398 0 2.681-.447 3.921-.879 1.27-.442 2.583-.9 4.069-.9 1.66 0 3.384.581 5.269 1.775 4.705 2.979 10.355 6.159 17.896 6.159 7.856 0 16.524-3.437 26.5-10.507 1.869-1.324 3.564-1.915 5.499-1.915 1.092 0 2.163.182 3.295.374 1.234.209 2.511.426 3.923.426 3.211 0 6.267-1.195 9.614-3.761 24.697-18.93 51.629-22.474 80.144-26.227 33.636-4.427 68.417-9.004 105.821-37.771 31.833-24.481 38.115-45.503 42.273-59.415.438-1.465.85-2.846 1.266-4.135 4.165-12.91 6.607-15.926 9.657-16.975 2.023-.696 7.031-2.719 11.45-4.503 3.109-1.255 5.795-2.34 6.539-2.596 1.097-.377 1.227-1.049 1.207-1.417-.022-.376-.07-1.255-2.882-1.902z" fill="#FFF"/></svg>