<svg xmlns="http://www.w3.org/2000/svg" viewBox="0 0 360.834 360.834" width="512" height="512"><path class="audio-icon" d="M338.981 0H21.853a7.499 7.499 0 0 0-7.5 7.5v317.13c0 4.143 3.357 7.5 7.5 7.5h317.129c4.143 0 7.5-3.357 7.5-7.5V7.5a7.5 7.5 0 0 0-7.501-7.5zm-7.5 15v48.67H29.353V15h302.128zm-40.503 65.068v152.819c0 24.503-19.935 44.438-44.437 44.438H114.293c-24.503 0-44.438-19.935-44.438-44.438V80.068h221.123zM29.353 317.13V78.67h25.503v154.218c0 32.774 26.663 59.438 59.438 59.438h132.248c32.773 0 59.437-26.663 59.437-59.438V78.67h25.504v238.46H29.353z" fill="#FFF"/><path class="audio-icon" d="M278.845 45.762h24.54c4.143 0 7.5-3.357 7.5-7.5s-3.357-7.5-7.5-7.5h-24.54c-4.143 0-7.5 3.357-7.5 7.5s3.357 7.5 7.5 7.5zm-62.872 0h24.54c4.143 0 7.5-3.357 7.5-7.5s-3.357-7.5-7.5-7.5h-24.54c-4.143 0-7.5 3.357-7.5 7.5s3.357 7.5 7.5 7.5zM62.355 345.834H21.853c-4.143 0-7.5 3.357-7.5 7.5s3.357 7.5 7.5 7.5h40.503c4.143 0 7.5-3.357 7.5-7.5s-3.358-7.5-7.501-7.5zm276.626 0h-40.504c-4.143 0-7.5 3.357-7.5 7.5s3.357 7.5 7.5 7.5h40.504c4.143 0 7.5-3.357 7.5-7.5s-3.357-7.5-7.5-7.5z" fill="#FFF"/></svg>