<svg xmlns="http://www.w3.org/2000/svg" width="512" height="512" viewBox="0 0 533.333 533.333"><path class="audio-icon" d="M165.494 533.333c-35.545-73.962-16.616-116.343 10.703-156.272 29.917-43.728 37.627-87.013 37.627-87.013s23.518 30.573 14.11 78.39c41.548-46.25 49.389-119.938 43.115-148.159 93.914 65.63 134.051 207.737 79.96 313.054 287.695-162.776 71.562-406.339 33.934-433.775 12.543 27.435 14.922 73.88-10.416 96.42C331.635 33.333 225.583 0 225.583 0c12.543 83.877-45.466 175.596-101.404 244.13-1.965-33.446-4.053-56.525-21.641-88.531-3.948 60.758-50.381 110.285-62.955 171.161-17.032 82.44 12.758 142.802 125.911 206.573z" fill="#FFF"/></svg>