<svg xmlns="http://www.w3.org/2000/svg" viewBox="0 0 301.74 301.74" width="512" height="512"><path class="audio-icon" d="M88.42 221.057c-5.171 2.805-8.563 6.364-8.563 10.98 0 20.328 63.737 20.914 71.003 20.914 7.265 0 71.022-.586 71.022-20.914 0-14.733-33.423-19.078-54.631-20.365 5.464 6.281 10.332 9.098 10.854 9.379 1.288.67 2.346 1.602 3.234 2.665 11.663 1.512 20.26 3.724 25.212 5.803a2.738 2.738 0 0 1 .007 5.046c-5.982 2.532-17.3 5.264-33.049 6.678-.114.006-.208.053-.313.053-.074 0-.145-.012-.209-.017-6.636.582-13.996.953-22.128.953-27.73 0-47.124-4.033-55.666-7.655a2.739 2.739 0 0 1 .015-5.049c2.363-.986 5.541-2.005 9.436-2.966a294.673 294.673 0 0 1-16.224-5.505z" fill="#FFF"/><path class="audio-icon" d="M71.495 214.029c-6.04-2.863-11.672-6.01-16.823-9.406-12.267 7.28-19.92 16.43-19.92 27.415 0 30.91 59.823 47.592 116.118 47.592 56.296 0 116.117-16.682 116.117-47.592 0-30.403-57.864-46.999-113.322-47.538 1.56 6.321 3.685 11.697 6.092 16.192 55.909 1.706 91.151 19.136 91.151 31.346 0 12.85-38.97 31.514-100.038 31.514S50.831 244.888 50.831 232.038c0-5.573 7.358-12.246 20.664-18.009z" fill="#FFF"/><path class="audio-icon" d="M151.195 164.386c.082 5.501.607 10.478 1.434 15.053 79.104.408 134.101 27.892 134.101 52.6 0 24.897-55.792 52.638-135.859 52.638s-135.86-27.74-135.86-52.638c0-11.384 11.767-23.332 32.084-32.983-2.952-2.413-5.715-4.909-8.039-7.574-1.057-1.213-1.979-2.485-2.963-3.73C13.557 199.542 0 214.939 0 232.038c0 37.941 66.271 67.657 150.87 67.657s150.87-29.717 150.87-67.657c0-37.888-66.103-67.573-150.545-67.652z" fill="#FFF"/><path class="audio-icon" d="M82.177 68.488c.005-.401.067-.752.051-1.174-1.702-37.029-17.11-55.916-28.14-64.774a2.248 2.248 0 0 0-3.267 3.015c7.638 11.249 17.995 31.991 17.942 61.718-.028 15.876 4.375 64.937 22.391 95.541a1.668 1.668 0 0 1-2.538 2.1c-30.768-26.994-39.149-73.56-40.1-80.73-7.313 6.632-13.005 14.277-16.793 22.604-10.677 23.468-6.853 52.005 14.252 76.217 20.556 23.595 75.14 37.044 105.63 42.937a6.16 6.16 0 1 0 5.947-9.941c-11.657-14.301-24.042-41.229-13.741-86.818 5.875-37.698-28.946-63.609-61.634-60.695z" fill="#FFF"/></svg>