<?xml version="1.0" encoding="iso-8859-1"?>
<!-- Generator: Adobe Illustrator 18.0.0, SVG Export Plug-In . SVG Version: 6.00 Build 0)  -->
<!DOCTYPE svg PUBLIC "-//W3C//DTD SVG 1.1//EN" "http://www.w3.org/Graphics/SVG/1.1/DTD/svg11.dtd">
<svg xmlns="http://www.w3.org/2000/svg" xmlns:xlink="http://www.w3.org/1999/xlink" version="1.1" id="Capa_1" x="0px" y="0px" viewBox="0 0 301.74 301.74" style="enable-background:new 0 0 301.74 301.74;" xml:space="preserve" width="512px" height="512px">
<g>
	<g>
		<path class="audio-icon" d="M88.42,221.057c-5.171,2.805-8.563,6.364-8.563,10.98c0,20.328,63.737,20.914,71.003,20.914    c7.265,0,71.022-0.586,71.022-20.914c0-14.733-33.423-19.078-54.631-20.365c5.464,6.281,10.332,9.098,10.854,9.379    c1.288,0.67,2.346,1.602,3.234,2.665c11.663,1.512,20.26,3.724,25.212,5.803c1.016,0.427,1.677,1.42,1.678,2.521    c0.002,1.102-0.656,2.097-1.671,2.525c-5.982,2.532-17.3,5.264-33.049,6.678c-0.114,0.006-0.208,0.053-0.313,0.053    c-0.074,0-0.145-0.012-0.209-0.017c-6.636,0.582-13.996,0.953-22.128,0.953c-27.73,0-47.124-4.033-55.666-7.655    c-1.015-0.431-1.672-1.427-1.669-2.529c0.003-1.102,0.666-2.095,1.684-2.52c2.363-0.986,5.541-2.005,9.436-2.966    C99.213,224.893,93.79,223.056,88.42,221.057z" fill="#FFFFFF"/>
		<path class="audio-icon" d="M71.495,214.029c-6.04-2.863-11.672-6.01-16.823-9.406c-12.267,7.28-19.92,16.43-19.92,27.415    c0,30.91,59.823,47.592,116.118,47.592c56.296,0,116.117-16.682,116.117-47.592c0-30.403-57.864-46.999-113.322-47.538    c1.56,6.321,3.685,11.697,6.092,16.192c55.909,1.706,91.151,19.136,91.151,31.346c0,12.85-38.97,31.514-100.038,31.514    c-61.068,0-100.039-18.664-100.039-31.514C50.831,226.465,58.189,219.792,71.495,214.029z" fill="#FFFFFF"/>
		<path class="audio-icon" d="M151.195,164.386c0.082,5.501,0.607,10.478,1.434,15.053c79.104,0.408,134.101,27.892,134.101,52.6    c0,24.897-55.792,52.638-135.859,52.638s-135.86-27.74-135.86-52.638c0-11.384,11.767-23.332,32.084-32.983    c-2.952-2.413-5.715-4.909-8.039-7.574c-1.057-1.213-1.979-2.485-2.963-3.73C13.557,199.542,0,214.939,0,232.038    c0,37.941,66.271,67.657,150.87,67.657s150.87-29.717,150.87-67.657C301.74,194.15,235.637,164.465,151.195,164.386z" fill="#FFFFFF"/>
	</g>
	<path class="audio-icon" d="M82.177,68.488c0.005-0.401,0.067-0.752,0.051-1.174c-1.702-37.029-17.11-55.916-28.14-64.774   c-0.868-0.696-2.114-0.653-2.932,0.101c-0.817,0.755-0.96,1.994-0.335,2.914c7.638,11.249,17.995,31.991,17.942,61.718   c-0.028,15.876,4.375,64.937,22.391,95.541c0.415,0.706,0.257,1.608-0.375,2.131c-0.631,0.522-1.548,0.509-2.163-0.031   C57.848,137.92,49.467,91.354,48.516,84.184c-7.313,6.632-13.005,14.277-16.793,22.604c-10.677,23.468-6.853,52.005,14.252,76.217   c20.556,23.595,75.14,37.044,105.63,42.937c2.545,0.492,5.126-0.662,6.456-2.886c1.331-2.225,1.129-5.046-0.509-7.055   c-11.657-14.301-24.042-41.229-13.741-86.818C149.686,91.485,114.865,65.574,82.177,68.488z" fill="#FFFFFF"/>
</g>
<g>
</g>
<g>
</g>
<g>
</g>
<g>
</g>
<g>
</g>
<g>
</g>
<g>
</g>
<g>
</g>
<g>
</g>
<g>
</g>
<g>
</g>
<g>
</g>
<g>
</g>
<g>
</g>
<g>
</g>
</svg>
