<svg xmlns="http://www.w3.org/2000/svg" viewBox="0 0 459.5 459.5" width="512" height="512"><path class="audio-icon" d="M445.121 283.209h.008V157.477c0-13.534-10.971-24.506-24.506-24.506h-43.701c-13.534 0-24.506 10.972-24.506 24.506v61.267l11.664-9.991 27.457-38.825-20.456 53.864-45.11 38.639c-7.342 6.289-8.195 17.339-1.907 24.681 6.292 7.344 17.341 8.193 24.681 1.907l48.502-41.544a17.498 17.498 0 0 0 4.977-7.08l22.041-58.038-7.105 63.71c-.767 6.882-5.031 9.698-9.52 13.542l-48.503 41.544a33.542 33.542 0 0 1-7.091 4.666l-.01 132.676c-.001 11.601 9.402 21.005 21.002 21.006h.002c11.6 0 21.003-9.402 21.004-21.002l.012-155.289h9.061l-.003.06.438 155.287c.032 11.58 9.43 20.944 21.003 20.944h.061c11.6-.032 20.978-9.463 20.944-21.063l-.439-155.229z" fill="#FFF"/><circle class="audio-icon" cx="398.582" cy="81.628" r="36.277" fill="#FFF"/><circle class="audio-icon" cx="60.918" cy="81.628" r="36.277" fill="#FFF"/><path class="audio-icon" d="M133.531 262.431L88.42 223.792l-20.456-53.864 27.457 38.826 11.664 9.991v-61.267c0-13.534-10.972-24.506-24.506-24.506H38.877c-13.534 0-24.506 10.972-24.506 24.506V283.21h.009l-.439 155.228c-.033 11.601 9.344 21.031 20.944 21.063h.061c11.572 0 20.971-9.364 21.003-20.944l.439-155.287-.003-.06h9.06l.012 155.289c.001 11.6 9.405 21.003 21.006 21.002 11.6-.001 21.003-9.405 21.002-21.006l-.01-132.676a33.472 33.472 0 0 1-7.09-4.666l-48.503-41.544c-4.296-3.68-8.725-6.545-9.52-13.542l-7.105-63.709 22.04 58.037a17.507 17.507 0 0 0 4.977 7.08l48.503 41.544c7.349 6.292 18.395 5.43 24.681-1.907 6.288-7.342 5.435-18.392-1.907-24.681zm115.73-220.433C249.261 18.803 223.569 0 191.877 0c-31.693 0-57.385 18.803-57.385 41.998 0 9.57 4.382 18.387 11.745 25.449l-8.844 18.436a2.203 2.203 0 0 0 3.021 2.899l21.04-11.179c8.821 4.046 19.245 6.393 30.422 6.393 31.693 0 57.385-18.803 57.385-41.998zm68.616 79.237l8.844-18.436A2.203 2.203 0 0 0 323.7 99.9l-21.04 11.179c-8.821-4.046-19.244-6.393-30.422-6.393-31.692 0-57.384 18.803-57.384 41.998s25.692 41.998 57.384 41.998c31.693 0 57.384-18.803 57.384-41.998 0-9.569-4.381-18.386-11.745-25.449z" fill="#FFF"/></svg>