<svg xmlns="http://www.w3.org/2000/svg" viewBox="0 0 461.942 461.942" width="512" height="512"><path class="audio-icon" d="M94.418 143.113c8.82-8.82 23.171-8.82 31.993 0 24.416 24.416 64.145 24.416 88.561 0a22.475 22.475 0 0 1 15.997-6.626 22.479 22.479 0 0 1 15.997 6.626c24.416 24.416 64.145 24.416 88.561 0a22.475 22.475 0 0 1 15.997-6.626 22.479 22.479 0 0 1 15.997 6.626c11.828 11.828 27.554 18.342 44.28 18.342 16.728 0 32.453-6.514 44.281-18.342 7.811-7.811 7.81-20.474-.001-28.284-7.811-7.811-20.474-7.811-28.284 0a22.47 22.47 0 0 1-15.996 6.626 22.478 22.478 0 0 1-15.996-6.625c-11.827-11.828-27.554-18.342-44.28-18.343h-.001c-16.726 0-32.453 6.515-44.281 18.342-8.82 8.821-23.174 8.819-31.992.001-11.827-11.828-27.554-18.342-44.28-18.343h-.001c-16.726 0-32.453 6.515-44.281 18.342-8.82 8.821-23.174 8.82-31.992 0-24.417-24.417-64.146-24.417-88.562 0-8.82 8.82-23.172 8.82-31.994 0-7.811-7.811-20.474-7.811-28.284 0-7.81 7.811-7.81 20.474.001 28.284 24.414 24.416 64.142 24.416 88.56 0zm.002 102c8.82-8.82 23.171-8.82 31.993 0 24.416 24.416 64.145 24.416 88.561 0a22.475 22.475 0 0 1 15.997-6.626 22.479 22.479 0 0 1 15.997 6.626c24.416 24.416 64.145 24.416 88.561 0a22.475 22.475 0 0 1 15.997-6.626 22.479 22.479 0 0 1 15.997 6.626c11.828 11.828 27.554 18.342 44.28 18.342 16.728 0 32.453-6.514 44.281-18.342 7.811-7.811 7.81-20.474-.001-28.284-7.813-7.811-20.476-7.811-28.286 0a22.47 22.47 0 0 1-15.996 6.626 22.478 22.478 0 0 1-15.996-6.625c-11.827-11.828-27.554-18.342-44.28-18.343h-.001c-16.726 0-32.453 6.515-44.281 18.342-8.82 8.821-23.174 8.819-31.992.001-11.827-11.828-27.554-18.342-44.28-18.343h-.001c-16.726 0-32.453 6.515-44.281 18.342-8.82 8.821-23.174 8.82-31.992 0-24.417-24.417-64.146-24.417-88.562 0-8.82 8.82-23.172 8.82-31.994 0-7.811-7.811-20.474-7.811-28.284 0-7.81 7.811-7.81 20.474.001 28.284 24.416 24.416 64.144 24.416 88.562 0zm333.377 73.716a22.47 22.47 0 0 1-15.996 6.626 22.478 22.478 0 0 1-15.996-6.625c-11.827-11.828-27.554-18.342-44.28-18.343h-.001c-16.726 0-32.453 6.515-44.281 18.342-8.82 8.821-23.174 8.819-31.992.001-11.827-11.828-27.554-18.342-44.28-18.343h-.001c-16.726 0-32.453 6.515-44.281 18.342-8.82 8.82-23.174 8.821-31.992 0-24.417-24.417-64.146-24.417-88.562 0-8.82 8.82-23.172 8.82-31.994 0-7.811-7.811-20.474-7.811-28.284 0-7.81 7.811-7.81 20.474.001 28.284 24.416 24.416 64.144 24.416 88.562 0 8.82-8.82 23.171-8.82 31.993 0 24.416 24.416 64.145 24.416 88.561 0a22.475 22.475 0 0 1 15.997-6.626 22.479 22.479 0 0 1 15.997 6.626c24.416 24.416 64.145 24.416 88.561 0a22.475 22.475 0 0 1 15.997-6.626 22.479 22.479 0 0 1 15.997 6.626c11.828 11.828 27.554 18.342 44.28 18.342 16.728 0 32.453-6.514 44.281-18.342 7.811-7.811 7.81-20.474-.001-28.284-7.813-7.811-20.476-7.811-28.286 0z" fill="#FFF"/></svg>27.554-18.342-44.28-18.343c-0.002,0,0,0-0.001,0     c-16.726,0-32.453,6.515-44.281,18.342c-8.82,8.82-23.174,8.821-31.992,0c-24.417-24.417-64.146-24.417-88.562,0     c-8.82,8.82-23.172,8.82-31.994,0c-7.811-7.811-20.474-7.811-28.284,0c-7.81,7.811-7.81,20.474,0.001,28.284     c24.416,24.416,64.144,24.416,88.562,0c8.82-8.82,23.171-8.82,31.993,0c24.416,24.416,64.145,24.416,88.561,0     c4.273-4.273,9.954-6.626,15.997-6.626c6.043,0,11.724,2.354,15.997,6.626c24.416,24.416,64.145,24.416,88.561,0     c4.273-4.273,9.954-6.626,15.997-6.626c6.043,0,11.724,2.354,15.997,6.626c11.828,11.828,27.554,18.342,44.28,18.342     c16.728,0,32.453-6.514,44.281-18.342c7.811-7.811,7.81-20.474-0.001-28.284C448.27,311.018,435.607,311.018,427.797,318.829z" fill="#FFFFFF"/>
		</g>
	</g>
</g>
<g>
</g>
<g>
</g>
<g>
</g>
<g>
</g>
<g>
</g>
<g>
</g>
<g>
</g>
<g>
</g>
<g>
</g>
<g>
</g>
<g>
</g>
<g>
</g>
<g>
</g>
<g>
</g>
<g>
</g>
</svg>
