<svg xmlns="http://www.w3.org/2000/svg" viewBox="0 0 33.062 33.062" width="512" height="512"><path class="audio-icon" d="M25.615 22.324a.5.5 0 0 1 0-1 6.453 6.453 0 0 0 6.446-6.446c0-3.553-2.892-6.443-6.446-6.443a6.56 6.56 0 0 0-.991.083.5.5 0 0 1-.522-.273C22.558 5.114 19.44 3.17 15.965 3.17a9.049 9.049 0 0 0-8.804 6.904c-.056.228-.278.373-.498.38l-.127-.007h-.009C3.437 10.447 1 12.886 1 15.884c0 3 2.441 5.44 5.442 5.44a.5.5 0 0 1 0 1A6.448 6.448 0 0 1 0 15.884a6.45 6.45 0 0 1 6.294-6.44 10.046 10.046 0 0 1 9.67-7.274c3.738 0 7.104 2.026 8.869 5.311.28-.031.534-.046.781-.046 4.106 0 7.446 3.339 7.446 7.443.002 4.106-3.339 7.446-7.445 7.446z" fill="#FFF"/><path class="audio-icon" d="M25.615 22.324a.5.5 0 0 1 0-1 6.453 6.453 0 0 0 6.446-6.446c0-3.553-2.892-6.443-6.446-6.443a6.45 6.45 0 0 0-4.858 2.208.5.5 0 0 1-.753-.657 7.443 7.443 0 0 1 5.611-2.55c4.106 0 7.446 3.339 7.446 7.443.001 4.105-3.34 7.445-7.446 7.445zm-17.34 8.568a.5.5 0 0 1-.476-.653l.918-2.855a.5.5 0 1 1 .952.306l-.918 2.856a.5.5 0 0 1-.476.346zm1.837-5.712a.5.5 0 0 1-.476-.653l.918-2.856a.5.5 0 0 1 .952.306l-.918 2.856a.5.5 0 0 1-.476.347zm8.163 5.712a.5.5 0 0 1-.476-.653l.918-2.855a.5.5 0 1 1 .952.306l-.918 2.856a.5.5 0 0 1-.476.346zm1.837-5.712a.5.5 0 0 1-.476-.653l.918-2.856a.5.5 0 0 1 .952.306l-.918 2.856a.5.5 0 0 1-.476.347zm-6.837 5.712a.5.5 0 0 1-.476-.653l.918-2.855a.5.5 0 1 1 .952.306l-.918 2.856a.5.5 0 0 1-.476.346zm1.837-5.712a.5.5 0 0 1-.476-.653l.918-2.856a.5.5 0 0 1 .952.306l-.918 2.856a.5.5 0 0 1-.476.347z" fill="#FFF"/></svg>