<svg xmlns="http://www.w3.org/2000/svg" viewBox="0 0 496 496" width="512" height="512"><path class="audio-icon" d="M413.968 113.096C402.968 48.184 346.464 0 280 0c-60.16 0-112.6 39.232-129.944 96.272A67.728 67.728 0 0 0 144 96c-24.032 0-46.56 12.184-59.856 32.08C37.4 130.112 0 168.768 0 216c0 48.52 39.48 88 88 88h312c52.936 0 96-43.064 96-96 0-47.576-35.536-88.072-82.032-94.904zM400 288H88c-39.704 0-72-32.304-72-72s32.296-72 71.688-72.008l5.536.04 2.304-3.992C105.536 122.744 124.12 112 144 112c3.352 0 6.856.336 10.424 1.008l7.424 1.4 1.824-7.336C176.96 53.448 224.8 16 280 16c60.512 0 111.672 45.28 119.008 105.32l.56 4.592c.272 3.328.432 6.688.432 10.088 0 66.168-53.832 120-120 120v16c74.992 0 136-61.008 136-136 0-2.12-.176-4.2-.272-6.296C452.432 137.088 480 169.768 480 208c0 44.112-35.888 80-80 80zm-272 96v-1.352a31.943 31.943 0 0 0-4.56-16.464L96 320.448l-27.44 45.728A32.014 32.014 0 0 0 64 382.648V384c0 17.648 14.352 32 32 32s32-14.352 32-32zm-16 0c0 8.824-7.176 16-16 16s-16-7.176-16-16v-1.352c0-2.904.792-5.744 2.28-8.232L96 351.552l13.72 22.872a15.981 15.981 0 0 1 2.28 8.224V384zm64-63.552l-27.44 45.728a32.014 32.014 0 0 0-4.56 16.472V384c0 17.648 14.352 32 32 32s32-14.352 32-32v-1.352a31.943 31.943 0 0 0-4.56-16.464L176 320.448zM192 384c0 8.824-7.176 16-16 16s-16-7.176-16-16v-1.352c0-2.904.792-5.744 2.28-8.232L176 351.552l13.72 22.872a15.981 15.981 0 0 1 2.28 8.224V384zm176 0v-1.352a31.943 31.943 0 0 0-4.56-16.464L336 320.448l-27.44 45.728a32.014 32.014 0 0 0-4.56 16.472V384c0 17.648 14.352 32 32 32s32-14.352 32-32zm-16 0c0 8.824-7.176 16-16 16s-16-7.176-16-16v-1.352c0-2.904.792-5.744 2.28-8.232L336 351.552l13.72 22.872a15.981 15.981 0 0 1 2.28 8.224V384zm64-63.552l-27.44 45.728a32.014 32.014 0 0 0-4.56 16.472V384c0 17.648 14.352 32 32 32s32-14.352 32-32v-1.352a31.943 31.943 0 0 0-4.56-16.464L416 320.448zM432 384c0 8.824-7.176 16-16 16s-16-7.176-16-16v-1.352c0-2.904.792-5.744 2.28-8.232L416 351.552l13.72 22.872a15.981 15.981 0 0 1 2.28 8.224V384zM56 400.448l-27.44 45.728A32.014 32.014 0 0 0 24 462.648V464c0 17.648 14.352 32 32 32s32-14.352 32-32v-1.352a31.943 31.943 0 0 0-4.56-16.464L56 400.448zM72 464c0 8.824-7.176 16-16 16s-16-7.176-16-16v-1.352c0-2.904.792-5.744 2.28-8.232L56 431.552l13.72 22.872a15.981 15.981 0 0 1 2.28 8.224V464zm64-63.552l-27.44 45.728a32.014 32.014 0 0 0-4.56 16.472V464c0 17.648 14.352 32 32 32s32-14.352 32-32v-1.352a31.943 31.943 0 0 0-4.56-16.464L136 400.448zM152 464c0 8.824-7.176 16-16 16s-16-7.176-16-16v-1.352c0-2.904.792-5.744 2.28-8.232L136 431.552l13.72 22.872a15.981 15.981 0 0 1 2.28 8.224V464zm144-63.552l-27.44 45.728a32.014 32.014 0 0 0-4.56 16.472V464c0 17.648 14.352 32 32 32s32-14.352 32-32v-1.352a31.943 31.943 0 0 0-4.56-16.464L296 400.448zM312 464c0 8.824-7.176 16-16 16s-16-7.176-16-16v-1.352c0-2.904.792-5.744 2.28-8.232L296 431.552l13.72 22.872a15.981 15.981 0 0 1 2.28 8.224V464zm64-63.552l-27.44 45.728a32.014 32.014 0 0 0-4.56 16.472V464c0 17.648 14.352 32 32 32s32-14.352 32-32v-1.352a31.943 31.943 0 0 0-4.56-16.464L376 400.448zM392 464c0 8.824-7.176 16-16 16s-16-7.176-16-16v-1.352c0-2.904.792-5.744 2.28-8.232L376 431.552l13.72 22.872a15.981 15.981 0 0 1 2.28 8.224V464zm-153.864-72l40.72-67.88-13.712-8.24-55.28 92.12h47.568l-48.184 75.704 13.504 8.592L286.568 392z" fill="#FFF"/></svg>