<svg xmlns="http://www.w3.org/2000/svg" viewBox="0 0 463.561 463.561" width="512" height="512"><path class="audio-icon" d="M290.408 274.547c-4.054 19.031-67.3 30.643-96.839 20.121-21.663-7.72-14.26-31.313-14.26-31.313l-32.52-.058s-6.146 14.443-30.031 8.708c2.395 35.907 56.807 58.116 130.596 72.598 73.785 14.482 134.968 8.565 136.646-13.216 1.391-17.982-38.212-41.154-93.592-56.84z" fill="#FFF"/><path class="audio-icon" d="M439.94 221.908s-61.669 1.277-74.835 20.309h-14.182c-5.638-8.978-11.268-17.899-17.994-26.129-4.953-6.064-10.509-12.281-17.35-16.296-9.888-5.806-21.54-8.546-32.63-11.014-6.01-1.336-33.474-5.649-49.447-5.649-15.972 0-32.23 2.267-34.905 2.747-6.181 1.111-12.34 2.351-18.445 3.8-6.241 1.479-12.469 3.143-18.487 5.37-3.809 1.408-7.675 3.014-11.072 5.269-7.469 4.954-13.489 11.788-18.948 18.825-3.681 4.748-7.11 9.691-10.383 14.73a266.94 266.94 0 0 0-4.137 6.595c-.354.579-.713 1.163-1.062 1.751H98.455c-13.166-19.032-74.835-20.309-74.835-20.309-17.225 0-23.62 12.5-23.62 27.916 0 15.418 6.396 27.916 23.62 27.916 0 0 61.669-1.277 74.835-20.309h17.057c2.456 4.485 7.131 7.741 12.718 7.827 4.541.072 8.97-1.992 11.817-5.535.587-.731 1.129-1.509 1.66-2.292h49.96v23.942c1.688 1.998 4.036 3.51 7.12 4.608 6.497 2.313 15.385 3.536 25.716 3.535 14.169 0 29.907-2.389 42.102-6.391 3.461-1.136 6.344-2.297 8.734-3.435v-22.26h49.976c.696 1.026 1.392 2.047 2.215 2.957 3.169 3.503 7.952 5.302 12.646 4.784 4.813-.536 9.148-3.491 11.431-7.741h13.499c13.166 19.032 74.835 20.309 74.835 20.309 17.226 0 23.62-12.498 23.62-27.916-.001-15.414-6.395-27.914-23.621-27.914zm-141.001 6.421c2.979 1.851 5.556 4.054 8.063 6.559 2.334 2.342 4.547 4.802 6.683 7.33h-38.347v-19.807c8.016 1.348 16.032 2.908 23.601 5.918zm-138.648 6.27c2.431-2.408 4.937-4.501 7.814-6.284 7.557-2.999 15.562-4.558 23.562-5.904v19.807h-38.344c2.225-2.632 4.523-5.195 6.968-7.619zm54.454-59.551a34.967 34.967 0 0 0 12.822 5.299l.049.01c11.328 2.2 23.244-1.449 31.415-9.599 8.289-8.274 11.928-20.504 9.518-31.963-2.356-11.163-10.25-20.719-20.788-25.103-10.778-4.485-23.352-3.242-33.035 3.283-9.688 6.526-15.554 17.712-15.444 29.394.105 11.412 6.005 22.312 15.463 28.679z" fill="#FFF"/></svg>