<svg xmlns="http://www.w3.org/2000/svg" viewBox="0 0 419.49 419.49" width="512" height="512"><path class="audio-icon" d="M349.288 132.888c-9.07-67.005-53.014-115.961-122.536-115.961-58.207 0-90.428 34.307-110.292 87.526a96.108 96.108 0 0 0-22.244-2.608C42.221 101.845 0 147.831 0 198.623c0 48.593 40.702 87.775 90.701 90.701h22.675v-22.675H90.701c-36.099-2.109-68.025-32.72-68.025-68.025 0-36.915 33.763-71.631 71.54-71.631 8.843 0 17.528 1.678 25.804 4.943l13.673 5.442 3.673-13.945c12.811-48.593 38.049-84.011 89.385-84.011 60.293 0 95.19 47.595 97.889 106.505l.59 12.789 15.646-1.111c29.16 0 55.962 23.877 55.962 52.357S369.31 266.65 340.15 266.65h-34.013v22.675h33.99c43.355 0 79.363-37.006 79.363-79.363 0-39.207-30.611-72.925-70.202-77.074zm-31.836 99.748h-68.025l45.35-68.025H170.064L126.006 289.71h54.715l-32.924 112.854 169.655-169.928zm-158.726 34.012l34.013-79.363h56.688l-34.013 68.025h45.35l-68.025 68.025 22.675-56.688h-56.688z" fill="#FFF"/></svg>