<svg xmlns="http://www.w3.org/2000/svg" viewBox="0 0 56.998 56.998" width="512" height="512"><path class="audio-icon" d="M29.577 23.645l.393 6.242-4.116.26-.394-6.242 4.117-.26zm27.203 5.487c-2.105.217-3.576-2.611-3.576-7.678-1.736-1.567-9.93 6.998-9.93 6.998l.053.114c-1.854 1.298-3.744 2.539-5.633 3.781.945-2.646 1.854-5.31 2.645-8.012.023-.085.043-.167.059-.249l6.971-6.285c-4.646-1.889-2.869-4.509-7.938-6.621-1.513.453-3.106 9.394-3.433 11.299a2.582 2.582 0 0 0-.254.588c-.863 2.961-1.875 5.871-2.914 8.771-6.845-2.015-14.03-.954-20.877.779-3.567.903-3.578 5.048-1.507 6.978.266.463.739.817 1.46.942 4.128.714 7.784 2.435 11.189 4.847 2.515 1.778 4.894-2.354 2.405-4.117a35.431 35.431 0 0 0-3.673-2.27c3.534-.334 7.06-.098 10.574 1.225 1.531.574 3.226-.172 4.222-1.398 3.272-2.29 6.688-4.375 9.937-6.706a2.6 2.6 0 0 0 .235-.192c3.618-.917 11.624-2.963 9.985-2.794zM6.082 34.718c1.784-3.654 3.775-3.646 6.487-3.64 1.178.005 2.5.01 3.892-.332l8.643-.546-.394-6.244-11.19.706a3.128 3.128 0 0 0-2.594 4.534c-2.443.133-4.85.904-6.763 5.123a4.253 4.253 0 0 0-3.917 2.884 4.238 4.238 0 0 0 .333 3.468L0 42.38l4.03 1.367.312-.923c.179-.003.356-.017.532-.042.622.55 1.567.566 2.204.003a1.66 1.66 0 0 0 .526-1.565c.298-.373.541-.802.704-1.281a4.256 4.256 0 0 0-2.226-5.221z" fill="#FFF"/></svg>