<svg xmlns="http://www.w3.org/2000/svg" viewBox="0 0 480 480" width="512" height="512"><path class="audio-icon" d="M412.178 103.039c-3.441-4.319-2.729-10.611 1.59-14.052 4.322-3.442 10.612-2.729 14.053 1.59a232.893 232.893 0 0 1 2.606 3.332c3.364 4.38 2.541 10.658-1.839 14.022a9.957 9.957 0 0 1-6.085 2.07 9.981 9.981 0 0 1-7.937-3.909 215.412 215.412 0 0 0-2.388-3.053zM240 20c48.917 0 95.221 15.71 133.907 45.432a9.953 9.953 0 0 0 6.086 2.071c3 0 5.968-1.345 7.936-3.908 3.365-4.379 2.542-10.657-1.837-14.022C343.88 17.142 293.362 0 240 0c-5.522 0-10 4.477-10 10s4.478 10 10 10zm87.103 60.032c-5.521.122-9.899 4.696-9.778 10.217.12 5.447 4.573 9.78 9.994 9.78l.224-.002A111.34 111.34 0 0 1 330 100c5.522 0 9.999-4.477 9.999-10s-4.479-10-10.001-10c-.967 0-1.933.011-2.895.032zM64.736 399.958c.854.028 1.714.042 2.576.042 22.193 0 42.907-9.289 57.562-25.359C139.53 390.711 160.244 400 182.438 400c22.193 0 42.907-9.289 57.562-25.359C254.655 390.711 275.369 400 297.562 400c22.194 0 42.908-9.289 57.563-25.359C369.781 390.711 390.494 400 412.688 400c26.72 0 51.293-13.459 65.732-36.004 2.979-4.651 1.623-10.835-3.027-13.814-4.65-2.979-10.836-1.623-13.814 3.027C450.833 369.984 432.557 380 412.688 380c-19.864 0-38.139-10.016-48.885-26.792a10.002 10.002 0 0 0-8.421-4.606h-.513a10.002 10.002 0 0 0-8.421 4.606C335.703 369.984 317.427 380 297.562 380s-38.139-10.016-48.885-26.792a10.002 10.002 0 0 0-8.421-4.606h-.514a10.002 10.002 0 0 0-8.421 4.606C220.577 369.984 202.303 380 182.438 380s-38.14-10.016-48.886-26.792a10.002 10.002 0 0 0-8.421-4.606h-.513a10.002 10.002 0 0 0-8.421 4.606C105.452 369.984 87.176 380 67.312 380c-.644 0-1.284-.01-1.924-.031-25.027-.813-45.387-22.265-45.387-47.818V240c0-92.696 58.636-175.357 144.558-206.715A241.128 241.128 0 0 0 160 80c0 64.106 24.964 124.375 70.294 169.706S335.893 320 399.999 320c21.799 0 43.435-2.937 64.308-8.729 5.322-1.477 8.438-6.988 6.962-12.31-1.478-5.322-6.994-8.439-12.31-6.962-19.132 5.309-38.969 8.001-58.961 8.001-74.285 0-140.088-37.009-179.943-93.557 1.333-40.984 25.915-78.493 63.143-96.022 4.997-2.353 7.141-8.311 4.787-13.308-2.352-4.997-8.311-7.139-13.307-4.787-21.792 10.261-40.3 26.361-53.521 46.559a129.329 129.329 0 0 0-17.486 40.339C188.538 149.397 180 115.673 180 80c0-19.99 2.692-39.828 8.001-58.961.964-3.473-.016-7.196-2.564-9.745s-6.271-3.529-9.745-2.564C126.129 22.483 81.439 52.606 49.855 93.551 17.24 135.831.001 186.473.001 240v92.151c0 17.557 6.641 34.242 18.698 46.981 12.173 12.861 28.524 20.257 46.037 20.826zm410.656 30.223c-4.65-2.979-10.836-1.623-13.814 3.027C450.833 449.984 432.557 460 412.688 460c-19.864 0-38.139-10.016-48.885-26.792a10.002 10.002 0 0 0-8.421-4.606h-.513a10.002 10.002 0 0 0-8.421 4.606C335.703 449.984 317.427 460 297.562 460s-38.139-10.016-48.885-26.792a10.002 10.002 0 0 0-8.421-4.606h-.514a10.002 10.002 0 0 0-8.421 4.606C220.577 449.984 202.303 460 182.438 460s-38.14-10.016-48.886-26.792a10.002 10.002 0 0 0-8.421-4.606h-.513a10.002 10.002 0 0 0-8.421 4.606C105.452 449.984 87.176 460 67.312 460c-19.869 0-38.145-10.016-48.89-26.792-2.979-4.649-9.164-6.007-13.814-3.027-4.65 2.979-6.006 9.164-3.027 13.814C16.02 466.541 40.593 480 67.312 480c22.193 0 42.907-9.289 57.562-25.359C139.53 470.711 160.244 480 182.438 480c22.193 0 42.907-9.289 57.562-25.359C254.655 470.711 275.369 480 297.562 480c22.194 0 42.908-9.289 57.563-25.359C369.781 470.711 390.494 480 412.688 480c26.72 0 51.293-13.459 65.732-36.004 2.978-4.651 1.623-10.836-3.028-13.815z" fill="#FFF"/></svg>