<?xml version="1.0" encoding="iso-8859-1"?>
<!-- Generator: Adobe Illustrator 19.0.0, SVG Export Plug-In . SVG Version: 6.00 Build 0)  -->
<svg xmlns="http://www.w3.org/2000/svg" xmlns:xlink="http://www.w3.org/1999/xlink" version="1.1" id="Layer_1" x="0px" y="0px" viewBox="0 0 461.942 461.942" style="enable-background:new 0 0 461.942 461.942;" xml:space="preserve" width="512px" height="512px">
<g>
	<g>
		<g>
			<path class="audio-icon" d="M94.418,143.113c8.82-8.82,23.171-8.82,31.993,0c24.416,24.416,64.145,24.416,88.561,0     c4.273-4.273,9.954-6.626,15.997-6.626c6.043,0,11.724,2.354,15.997,6.626c24.416,24.416,64.145,24.416,88.561,0     c4.273-4.273,9.954-6.626,15.997-6.626c6.043,0,11.724,2.354,15.997,6.626c11.828,11.828,27.554,18.342,44.28,18.342     c16.728,0,32.453-6.514,44.281-18.342c7.811-7.811,7.81-20.474-0.001-28.284c-7.811-7.811-20.474-7.811-28.284,0     c-4.272,4.273-9.953,6.626-15.996,6.626c-6.043,0-11.724-2.354-15.996-6.625c-11.827-11.828-27.554-18.342-44.28-18.343     c-0.002,0,0,0-0.001,0c-16.726,0-32.453,6.515-44.281,18.342c-8.82,8.821-23.174,8.819-31.992,0.001     c-11.827-11.828-27.554-18.342-44.28-18.343c-0.002,0,0,0-0.001,0c-16.726,0-32.453,6.515-44.281,18.342     c-8.82,8.821-23.174,8.82-31.992,0c-24.417-24.417-64.146-24.417-88.562,0c-8.82,8.82-23.172,8.82-31.994,0     c-7.811-7.811-20.474-7.811-28.284,0c-7.81,7.811-7.81,20.474,0.001,28.284C30.272,167.529,70,167.529,94.418,143.113z" fill="#FFFFFF"/>
			<path class="audio-icon" d="M94.42,245.113c8.82-8.82,23.171-8.82,31.993,0c24.416,24.416,64.145,24.416,88.561,0     c4.273-4.273,9.954-6.626,15.997-6.626c6.043,0,11.724,2.354,15.997,6.626c24.416,24.416,64.145,24.416,88.561,0     c4.273-4.273,9.954-6.626,15.997-6.626c6.043,0,11.724,2.354,15.997,6.626c11.828,11.828,27.554,18.342,44.28,18.342     c16.728,0,32.453-6.514,44.281-18.342c7.811-7.811,7.81-20.474-0.001-28.284c-7.813-7.811-20.476-7.811-28.286,0     c-4.272,4.273-9.953,6.626-15.996,6.626c-6.043,0-11.724-2.354-15.996-6.625c-11.827-11.828-27.554-18.342-44.28-18.343     c-0.002,0,0,0-0.001,0c-16.726,0-32.453,6.515-44.281,18.342c-8.82,8.821-23.174,8.819-31.992,0.001     c-11.827-11.828-27.554-18.342-44.28-18.343c-0.002,0,0,0-0.001,0c-16.726,0-32.453,6.515-44.281,18.342     c-8.82,8.821-23.174,8.82-31.992,0c-24.417-24.417-64.146-24.417-88.562,0c-8.82,8.82-23.172,8.82-31.994,0     c-7.811-7.811-20.474-7.811-28.284,0c-7.81,7.811-7.81,20.474,0.001,28.284C30.274,269.529,70.002,269.529,94.42,245.113z" fill="#FFFFFF"/>
			<path class="audio-icon" d="M427.797,318.829c-4.272,4.273-9.953,6.626-15.996,6.626c-6.043,0-11.724-2.354-15.996-6.625     c-11.827-11.828-27.554-18.342-44.28-18.343c-0.002,0,0,0-0.001,0c-16.726,0-32.453,6.515-44.281,18.342     c-8.82,8.821-23.174,8.819-31.992,0.001c-11.827-11.828-27.554-18.342-44.28-18.343c-0.002,0,0,0-0.001,0     c-16.726,0-32.453,6.515-44.281,18.342c-8.82,8.82-23.174,8.821-31.992,0c-24.417-24.417-64.146-24.417-88.562,0     c-8.82,8.82-23.172,8.82-31.994,0c-7.811-7.811-20.474-7.811-28.284,0c-7.81,7.811-7.81,20.474,0.001,28.284     c24.416,24.416,64.144,24.416,88.562,0c8.82-8.82,23.171-8.82,31.993,0c24.416,24.416,64.145,24.416,88.561,0     c4.273-4.273,9.954-6.626,15.997-6.626c6.043,0,11.724,2.354,15.997,6.626c24.416,24.416,64.145,24.416,88.561,0     c4.273-4.273,9.954-6.626,15.997-6.626c6.043,0,11.724,2.354,15.997,6.626c11.828,11.828,27.554,18.342,44.28,18.342     c16.728,0,32.453-6.514,44.281-18.342c7.811-7.811,7.81-20.474-0.001-28.284C448.27,311.018,435.607,311.018,427.797,318.829z" fill="#FFFFFF"/>
		</g>
	</g>
</g>
<g>
</g>
<g>
</g>
<g>
</g>
<g>
</g>
<g>
</g>
<g>
</g>
<g>
</g>
<g>
</g>
<g>
</g>
<g>
</g>
<g>
</g>
<g>
</g>
<g>
</g>
<g>
</g>
<g>
</g>
</svg>
