<?xml version="1.0" encoding="iso-8859-1"?>
<!-- Generator: Adobe Illustrator 19.1.0, SVG Export Plug-In . SVG Version: 6.00 Build 0)  -->
<svg xmlns="http://www.w3.org/2000/svg" xmlns:xlink="http://www.w3.org/1999/xlink" version="1.1" id="Capa_1" x="0px" y="0px" viewBox="0 0 419.49 419.49" style="enable-background:new 0 0 419.49 419.49;" xml:space="preserve" width="512px" height="512px">
<g>
	<g id="Cloud__x2B__Thunder">
		<g>
			<path class="audio-icon" d="M349.288,132.888c-9.07-67.005-53.014-115.961-122.536-115.961c-58.207,0-90.428,34.307-110.292,87.526     c-7.233-1.723-14.716-2.608-22.244-2.608C42.221,101.845,0,147.831,0,198.623c0,48.593,40.702,87.775,90.701,90.701h22.675     v-22.675H90.701c-36.099-2.109-68.025-32.72-68.025-68.025c0-36.915,33.763-71.631,71.54-71.631     c8.843,0,17.528,1.678,25.804,4.943l13.673,5.442l3.673-13.945c12.811-48.593,38.049-84.011,89.385-84.011     c60.293,0,95.19,47.595,97.889,106.505l0.59,12.789l15.646-1.111c29.16,0,55.962,23.877,55.962,52.357     s-27.528,56.688-56.688,56.688h-34.013v22.675h33.99c43.355,0,79.363-37.006,79.363-79.363     C419.49,170.755,388.879,137.037,349.288,132.888z M317.452,232.636h-68.025l45.35-68.025H170.064l-44.058,125.099h54.715     l-32.924,112.854L317.452,232.636z M158.726,266.648l34.013-79.363h56.688l-34.013,68.025h45.35l-68.025,68.025l22.675-56.688     H158.726z" fill="#FFFFFF"/>
		</g>
	</g>
</g>
<g>
</g>
<g>
</g>
<g>
</g>
<g>
</g>
<g>
</g>
<g>
</g>
<g>
</g>
<g>
</g>
<g>
</g>
<g>
</g>
<g>
</g>
<g>
</g>
<g>
</g>
<g>
</g>
<g>
</g>
</svg>
