<?xml version="1.0" encoding="iso-8859-1"?>
<svg xmlns="http://www.w3.org/2000/svg" xmlns:xlink="http://www.w3.org/1999/xlink" version="1.1" viewBox="0 0 360.834 360.834" enable-background="new 0 0 360.834 360.834" width="512px" height="512px">
  <g>
    <path class="audio-icon" d="M338.981,0H21.853c-4.143,0-7.5,3.357-7.5,7.5v317.13c0,4.143,3.357,7.5,7.5,7.5h317.129c4.143,0,7.5-3.357,7.5-7.5V7.5   C346.481,3.357,343.124,0,338.981,0z M331.481,15v48.67H29.353V15H331.481z M290.978,80.068v152.819   c0,24.503-19.935,44.438-44.437,44.438H114.293c-24.503,0-44.438-19.935-44.438-44.438V80.068H290.978z M29.353,317.13V78.67   h25.503v154.218c0,32.774,26.663,59.438,59.438,59.438h132.248c32.773,0,59.437-26.663,59.437-59.438V78.67h25.504v238.46H29.353z" fill="#FFFFFF"/>
    <path class="audio-icon" d="m278.845,45.762h24.54c4.143,0 7.5-3.357 7.5-7.5s-3.357-7.5-7.5-7.5h-24.54c-4.143,0-7.5,3.357-7.5,7.5s3.357,7.5 7.5,7.5z" fill="#FFFFFF"/>
    <path class="audio-icon" d="m215.973,45.762h24.54c4.143,0 7.5-3.357 7.5-7.5s-3.357-7.5-7.5-7.5h-24.54c-4.143,0-7.5,3.357-7.5,7.5s3.357,7.5 7.5,7.5z" fill="#FFFFFF"/>
    <path class="audio-icon" d="m62.355,345.834h-40.502c-4.143,0-7.5,3.357-7.5,7.5s3.357,7.5 7.5,7.5h40.503c4.143,0 7.5-3.357 7.5-7.5s-3.358-7.5-7.501-7.5z" fill="#FFFFFF"/>
    <path class="audio-icon" d="m338.981,345.834h-40.504c-4.143,0-7.5,3.357-7.5,7.5s3.357,7.5 7.5,7.5h40.504c4.143,0 7.5-3.357 7.5-7.5s-3.357-7.5-7.5-7.5z" fill="#FFFFFF"/>
  </g>
</svg>
