<?xml version="1.0" encoding="iso-8859-1"?>
<svg xmlns="http://www.w3.org/2000/svg" xmlns:xlink="http://www.w3.org/1999/xlink" version="1.1" viewBox="0 0 44 44" enable-background="new 0 0 44 44" width="512px" height="512px">
  <g>
    <g>
      <path class="icon" fill-rule="evenodd" d="m3,9c-1.657,0-3,1.343-3,3s1.343,3 3,3 3-1.343 3-3-1.343-3-3-3zm0,4c-0.552,0-1-0.447-1-1s0.448-1 1-1 1,0.447 1,1-0.448,1-1,1zm0,16c-1.657,0-3,1.343-3,3s1.343,3 3,3 3-1.343 3-3-1.343-3-3-3zm0,4c-0.552,0-1-0.447-1-1s0.448-1 1-1 1,0.447 1,1-0.448,1-1,1zm38-14h-30c-1.657,0-3,1.343-3,3s1.343,3 3,3h30c1.657,0 3-1.343 3-3s-1.343-3-3-3zm0,4h-30c-0.552,0-1-0.447-1-1s0.448-1 1-1h30c0.552,0 1,0.447 1,1s-0.448,1-1,1zm-30-8h18c1.657,0 3-1.343 3-3s-1.343-3-3-3h-18c-1.657,0-3,1.343-3,3s1.343,3 3,3zm0-4h18c0.552,0 1,0.447 1,1s-0.448,1-1,1h-18c-0.552,0-1-0.447-1-1s0.448-1 1-1zm-8,8c-1.657,0-3,1.343-3,3s1.343,3 3,3 3-1.343 3-3-1.343-3-3-3zm0,4c-0.552,0-1-0.447-1-1s0.448-1 1-1 1,0.447 1,1-0.448,1-1,1zm34,6h-26c-1.657,0-3,1.343-3,3s1.343,3 3,3h26c1.657,0 3-1.343 3-3s-1.343-3-3-3zm0,4h-26c-0.552,0-1-0.447-1-1s0.448-1 1-1h26c0.552,0 1,0.447 1,1s-0.448,1-1,1z" fill="#FFFFFF"/>
    </g>
  </g>
</svg>
