<?xml version="1.0" encoding="iso-8859-1"?>
<!-- Generator: Adobe Illustrator 19.0.0, SVG Export Plug-In . SVG Version: 6.00 Build 0)  -->
<svg xmlns="http://www.w3.org/2000/svg" xmlns:xlink="http://www.w3.org/1999/xlink" version="1.1" id="Layer_1" x="0px" y="0px" viewBox="0 0 496 496" style="enable-background:new 0 0 496 496;" xml:space="preserve" width="512px" height="512px">
<g>
	<g>
		<g>
			<path class="audio-icon" d="M413.968,113.096C402.968,48.184,346.464,0,280,0c-60.16,0-112.6,39.232-129.944,96.272     C148.008,96.088,145.984,96,144,96c-24.032,0-46.56,12.184-59.856,32.08C37.4,130.112,0,168.768,0,216c0,48.52,39.48,88,88,88     h312c52.936,0,96-43.064,96-96C496,160.424,460.464,119.928,413.968,113.096z M400,288H88c-39.704,0-72-32.304-72-72     s32.296-72,71.688-72.008l5.536,0.04l2.304-3.992C105.536,122.744,124.12,112,144,112c3.352,0,6.856,0.336,10.424,1.008     l7.424,1.4l1.824-7.336C176.96,53.448,224.8,16,280,16c60.512,0,111.672,45.28,119.008,105.32l0.56,4.592     C399.84,129.24,400,132.6,400,136c0,66.168-53.832,120-120,120v16c74.992,0,136-61.008,136-136c0-2.12-0.176-4.2-0.272-6.296     C452.432,137.088,480,169.768,480,208C480,252.112,444.112,288,400,288z" fill="#FFFFFF"/>
			<path class="audio-icon" d="M128,384v-1.352c0-5.808-1.576-11.504-4.56-16.464L96,320.448l-27.44,45.728C65.576,371.152,64,376.84,64,382.648V384     c0,17.648,14.352,32,32,32S128,401.648,128,384z M112,384c0,8.824-7.176,16-16,16s-16-7.176-16-16v-1.352     c0-2.904,0.792-5.744,2.28-8.232L96,351.552l13.72,22.872c1.488,2.48,2.28,5.32,2.28,8.224V384z" fill="#FFFFFF"/>
			<path class="audio-icon" d="M176,320.448l-27.44,45.728c-2.984,4.976-4.56,10.664-4.56,16.472V384c0,17.648,14.352,32,32,32s32-14.352,32-32v-1.352     c0-5.808-1.576-11.504-4.56-16.464L176,320.448z M192,384c0,8.824-7.176,16-16,16c-8.824,0-16-7.176-16-16v-1.352     c0-2.904,0.792-5.744,2.28-8.232L176,351.552l13.72,22.872c1.488,2.48,2.28,5.32,2.28,8.224V384z" fill="#FFFFFF"/>
			<path class="audio-icon" d="M368,384v-1.352c0-5.808-1.576-11.504-4.56-16.464L336,320.448l-27.44,45.728c-2.984,4.976-4.56,10.664-4.56,16.472V384     c0,17.648,14.352,32,32,32S368,401.648,368,384z M352,384c0,8.824-7.176,16-16,16c-8.824,0-16-7.176-16-16v-1.352     c0-2.904,0.792-5.744,2.28-8.232L336,351.552l13.72,22.872c1.488,2.48,2.28,5.32,2.28,8.224V384z" fill="#FFFFFF"/>
			<path class="audio-icon" d="M416,320.448l-27.44,45.728c-2.984,4.976-4.56,10.664-4.56,16.472V384c0,17.648,14.352,32,32,32s32-14.352,32-32v-1.352     c0-5.808-1.576-11.504-4.56-16.464L416,320.448z M432,384c0,8.824-7.176,16-16,16c-8.824,0-16-7.176-16-16v-1.352     c0-2.904,0.792-5.744,2.28-8.232L416,351.552l13.72,22.872c1.488,2.48,2.28,5.32,2.28,8.224V384z" fill="#FFFFFF"/>
			<path class="audio-icon" d="M56,400.448l-27.44,45.728C25.576,451.152,24,456.84,24,462.648V464c0,17.648,14.352,32,32,32s32-14.352,32-32v-1.352     c0-5.808-1.576-11.504-4.56-16.464L56,400.448z M72,464c0,8.824-7.176,16-16,16s-16-7.176-16-16v-1.352     c0-2.904,0.792-5.744,2.28-8.232L56,431.552l13.72,22.872c1.488,2.48,2.28,5.32,2.28,8.224V464z" fill="#FFFFFF"/>
			<path class="audio-icon" d="M136,400.448l-27.44,45.728c-2.984,4.976-4.56,10.664-4.56,16.472V464c0,17.648,14.352,32,32,32s32-14.352,32-32v-1.352     c0-5.808-1.576-11.504-4.56-16.464L136,400.448z M152,464c0,8.824-7.176,16-16,16c-8.824,0-16-7.176-16-16v-1.352     c0-2.904,0.792-5.744,2.28-8.232L136,431.552l13.72,22.872c1.488,2.48,2.28,5.32,2.28,8.224V464z" fill="#FFFFFF"/>
			<path class="audio-icon" d="M296,400.448l-27.44,45.728c-2.984,4.976-4.56,10.664-4.56,16.472V464c0,17.648,14.352,32,32,32s32-14.352,32-32v-1.352     c0-5.808-1.576-11.504-4.56-16.464L296,400.448z M312,464c0,8.824-7.176,16-16,16c-8.824,0-16-7.176-16-16v-1.352     c0-2.904,0.792-5.744,2.28-8.232L296,431.552l13.72,22.872c1.488,2.48,2.28,5.32,2.28,8.224V464z" fill="#FFFFFF"/>
			<path class="audio-icon" d="M376,400.448l-27.44,45.728c-2.984,4.976-4.56,10.664-4.56,16.472V464c0,17.648,14.352,32,32,32s32-14.352,32-32v-1.352     c0-5.808-1.576-11.504-4.56-16.464L376,400.448z M392,464c0,8.824-7.176,16-16,16c-8.824,0-16-7.176-16-16v-1.352     c0-2.904,0.792-5.744,2.28-8.232L376,431.552l13.72,22.872c1.488,2.48,2.28,5.32,2.28,8.224V464z" fill="#FFFFFF"/>
			<polygon class="audio-icon" points="238.136,392 278.856,324.12 265.144,315.88 209.864,408 257.432,408 209.248,483.704 222.752,492.296      286.568,392    " fill="#FFFFFF"/>
		</g>
	</g>
</g>
<g>
</g>
<g>
</g>
<g>
</g>
<g>
</g>
<g>
</g>
<g>
</g>
<g>
</g>
<g>
</g>
<g>
</g>
<g>
</g>
<g>
</g>
<g>
</g>
<g>
</g>
<g>
</g>
<g>
</g>
</svg>
