<?xml version="1.0" encoding="iso-8859-1"?>
<!-- Generator: Adobe Illustrator 18.1.1, SVG Export Plug-In . SVG Version: 6.00 Build 0)  -->
<svg xmlns="http://www.w3.org/2000/svg" xmlns:xlink="http://www.w3.org/1999/xlink" version="1.1" id="Capa_1" x="0px" y="0px" viewBox="0 0 463.561 463.561" style="enable-background:new 0 0 463.561 463.561;" xml:space="preserve" width="512px" height="512px">
<g>
	<g id="Layer_1_45_">
		<g>
			<path class="audio-icon" d="M290.408,274.547c-4.054,19.031-67.3,30.643-96.839,20.121c-21.663-7.72-14.26-31.313-14.26-31.313l-32.52-0.058     c0,0-6.146,14.443-30.031,8.708c2.395,35.907,56.807,58.116,130.596,72.598c73.785,14.482,134.968,8.565,136.646-13.216     C385.391,313.405,345.788,290.233,290.408,274.547z" fill="#FFFFFF"/>
			<path class="audio-icon" d="M439.94,221.908c0,0-61.669,1.277-74.835,20.309h-14.182c-5.638-8.978-11.268-17.899-17.994-26.129     c-4.953-6.064-10.509-12.281-17.35-16.296c-9.888-5.806-21.54-8.546-32.63-11.014c-6.01-1.336-33.474-5.649-49.447-5.649     c-15.972,0-32.23,2.267-34.905,2.747c-6.181,1.111-12.34,2.351-18.445,3.8c-6.241,1.479-12.469,3.143-18.487,5.37     c-3.809,1.408-7.675,3.014-11.072,5.269c-7.469,4.954-13.489,11.788-18.948,18.825c-3.681,4.748-7.11,9.691-10.383,14.73     c-1.409,2.178-2.791,4.375-4.137,6.595c-0.354,0.579-0.713,1.163-1.062,1.751H98.455c-13.166-19.032-74.835-20.309-74.835-20.309     c-17.225,0-23.62,12.5-23.62,27.916c0,15.418,6.396,27.916,23.62,27.916c0,0,61.669-1.277,74.835-20.309h17.057     c2.456,4.485,7.131,7.741,12.718,7.827c4.541,0.072,8.97-1.992,11.817-5.535c0.587-0.731,1.129-1.509,1.66-2.292h49.96     c0,7.981,0,15.962,0,23.942c1.688,1.998,4.036,3.51,7.12,4.608c6.497,2.313,15.385,3.536,25.716,3.535     c14.169,0,29.907-2.389,42.102-6.391c3.461-1.136,6.344-2.297,8.734-3.435c0-7.419,0-14.84,0-22.26h49.976     c0.696,1.026,1.392,2.047,2.215,2.957c3.169,3.503,7.952,5.302,12.646,4.784c4.813-0.536,9.148-3.491,11.431-7.741h13.499     c13.166,19.032,74.835,20.309,74.835,20.309c17.226,0,23.62-12.498,23.62-27.916C463.56,234.408,457.166,221.908,439.94,221.908z      M298.939,228.329c2.979,1.851,5.556,4.054,8.063,6.559c2.334,2.342,4.547,4.802,6.683,7.33h-38.347c0-6.601,0-13.206,0-19.807     C283.354,223.759,291.37,225.319,298.939,228.329z M160.291,234.599c2.431-2.408,4.937-4.501,7.814-6.284     c7.557-2.999,15.562-4.558,23.562-5.904c0,6.601,0,13.206,0,19.807h-38.344C155.548,239.586,157.846,237.023,160.291,234.599z" fill="#FFFFFF"/>
			<path class="audio-icon" d="M214.745,175.048c3.867,2.607,8.25,4.406,12.822,5.299l0.049,0.01c11.328,2.2,23.244-1.449,31.415-9.599     c8.289-8.274,11.928-20.504,9.518-31.963c-2.356-11.163-10.25-20.719-20.788-25.103c-10.778-4.485-23.352-3.242-33.035,3.283     c-9.688,6.526-15.554,17.712-15.444,29.394C199.387,157.781,205.287,168.681,214.745,175.048z" fill="#FFFFFF"/>
		</g>
	</g>
</g>
<g>
</g>
<g>
</g>
<g>
</g>
<g>
</g>
<g>
</g>
<g>
</g>
<g>
</g>
<g>
</g>
<g>
</g>
<g>
</g>
<g>
</g>
<g>
</g>
<g>
</g>
<g>
</g>
<g>
</g>
</svg>
