<?xml version="1.0" encoding="iso-8859-1"?>
<!-- Generator: Adobe Illustrator 17.1.0, SVG Export Plug-In . SVG Version: 6.00 Build 0)  -->
<!DOCTYPE svg PUBLIC "-//W3C//DTD SVG 1.1//EN" "http://www.w3.org/Graphics/SVG/1.1/DTD/svg11.dtd">
<svg xmlns="http://www.w3.org/2000/svg" xmlns:xlink="http://www.w3.org/1999/xlink" version="1.1" id="Capa_1" x="0px" y="0px" viewBox="0 0 455.634 455.634" style="enable-background:new 0 0 455.634 455.634;" xml:space="preserve" width="512px" height="512px">
<g>
	<path class="audio-icon" d="M448.838,281.276c-5.233-1.773-10.908,1.033-12.679,6.265c-4.786,14.133-13.671,21.004-27.165,21.004   c-13.076,0-25.091-9.54-29.899-23.738c-1.414-4.177-5.319-6.799-9.498-6.787c-0.052-0.002-0.103-0.003-0.155-0.004   c-0.042,0.001-0.083,0.002-0.125,0.003c-4.185-0.018-8.097,2.606-9.513,6.788c-4.808,14.199-16.823,23.738-29.898,23.738   c-13.076,0-25.091-9.54-29.899-23.738c-1.414-4.177-5.319-6.799-9.498-6.787c-0.052-0.002-0.104-0.003-0.155-0.004   c-0.042,0.001-0.084,0.002-0.125,0.003c-4.185-0.018-8.097,2.606-9.512,6.788c-4.808,14.199-16.823,23.738-29.898,23.738   c-10.204,0-19.745-5.826-25.736-15.125c-0.147-0.422-0.313-0.84-0.521-1.25c-18.79-36.956-18.596-71.524-8.2-98.824   c0.156-0.282,0.32-0.556,0.45-0.857c0.038-0.087,3.857-8.792,11.222-15.779c8.736-8.288,18.34-10.431,29.362-6.551   c10.022,3.528,12.84,8.78,14.194,11.304c3.24,6.038,7.692,6.88,10.854,6.521c3.264-0.369,7.234-2.542,8.738-7.522   c3.585-11.007,4.727-31.094-8.606-45.72c18.768-2.962,39.764,1.82,59.161,20.666l0.173,0.164c1.5,1.389,6.917,5.76,13.675,3.637   c6.024-1.895,9.368-8.04,8.319-15.292l-0.075-0.521l-0.13-0.511c-0.301-1.185-7.646-29.315-31.174-54.028   c-21.845-22.946-62.082-47.142-129.717-32.111c-33.124,7.361-62.049,24.337-85.971,50.456   c-18.844,20.574-34.316,46.911-46.761,77.973C46.488,244.045,46.04,292.504,46.531,293.955c7.552,22.306,23.927,34.59,46.108,34.59   c15.419,0,29.806-7.609,39.545-20.048c9.738,12.439,24.125,20.048,39.544,20.048s29.806-7.609,39.545-20.048   c9.739,12.439,24.126,20.048,39.545,20.048s29.806-7.609,39.544-20.048c9.739,12.439,24.126,20.048,39.545,20.048   s29.806-7.609,39.544-20.048c9.739,12.439,24.126,20.048,39.545,20.048c22.181,0,38.556-12.284,46.108-34.59   C456.874,288.723,454.069,283.047,448.838,281.276z M271.695,154.647c-2.267-1.214-4.809-2.35-7.662-3.354   c-4.674-1.645-9.322-2.598-13.89-2.881c3.013-2.178,6.234-4.188,9.629-5.978C265.672,145.315,269.616,149.348,271.695,154.647z    M171.728,308.545c-13.076,0-25.091-9.54-29.898-23.738c-1.414-4.177-5.318-6.799-9.498-6.787   c-0.052-0.002-0.104-0.003-0.155-0.004c-0.042,0.001-0.084,0.002-0.126,0.003c-4.185-0.018-8.097,2.606-9.513,6.788   c-4.808,14.199-16.823,23.738-29.899,23.738c-13.033,0-21.755-6.431-26.649-19.604c0.201-2.74,3.79-48.088,22.71-96.482   c25.532-65.305,65.382-104.396,118.444-116.188c46.65-10.368,83.776-1.682,110.352,25.813c7.411,7.667,12.984,15.831,17.076,23.108   c-30.53-17.129-66.477-14.869-96.907,7.557c-17.419,12.836-30.92,30.8-39.164,51.692c-0.047,0.106-0.077,0.177-0.09,0.207   c-0.044,0.104-0.075,0.21-0.115,0.314c-2.244,5.761-4.112,11.729-5.526,17.887c-6.318,27.522-3.61,56.563,7.772,84.78   C195.176,300.252,183.916,308.545,171.728,308.545z" fill="#FFFFFF"/>
	<path class="audio-icon" d="M402.838,356.276c-5.231-1.773-10.908,1.033-12.679,6.265c-4.786,14.133-13.671,21.004-27.165,21.004   c-13.076,0-25.091-9.54-29.899-23.738c-1.415-4.178-5.322-6.802-9.504-6.788c-0.048-0.002-0.095-0.003-0.143-0.003   c-0.046,0.001-0.092,0.002-0.138,0.003c-4.182-0.015-8.091,2.609-9.506,6.788c-4.808,14.199-16.823,23.738-29.898,23.738   c-13.076,0-25.091-9.54-29.899-23.738c-1.415-4.178-5.323-6.802-9.504-6.788c-0.048-0.002-0.096-0.003-0.143-0.003   c-0.046,0.001-0.092,0.002-0.139,0.003c-4.183-0.015-8.091,2.609-9.506,6.788c-4.808,14.199-16.823,23.738-29.898,23.738   c-13.076,0-25.091-9.54-29.899-23.738c-1.415-4.179-5.322-6.802-9.504-6.788c-0.048-0.002-0.095-0.003-0.143-0.003   c-0.046,0.001-0.092,0.002-0.138,0.003c-4.183-0.015-8.091,2.608-9.507,6.788c-4.808,14.199-16.823,23.738-29.899,23.738   c-13.076,0-25.091-9.54-29.898-23.738c-1.415-4.179-5.323-6.802-9.505-6.788c-0.048-0.002-0.095-0.003-0.143-0.003   c-0.046,0.001-0.092,0.002-0.138,0.003c-4.183-0.016-8.091,2.608-9.506,6.788c-4.808,14.199-16.823,23.738-29.899,23.738   c-13.494,0-22.379-6.871-27.165-21.004c-1.771-5.231-7.446-8.037-12.679-6.265c-5.231,1.771-8.036,7.447-6.265,12.679   c7.552,22.306,23.927,34.59,46.108,34.59c15.419,0,29.806-7.609,39.545-20.048c9.738,12.439,24.125,20.048,39.544,20.048   s29.806-7.609,39.545-20.048c9.739,12.439,24.126,20.048,39.545,20.048s29.806-7.609,39.544-20.048   c9.739,12.439,24.126,20.048,39.545,20.048s29.806-7.609,39.544-20.048c9.739,12.439,24.126,20.048,39.545,20.048   c22.181,0,38.556-12.284,46.108-34.59C410.874,363.723,408.069,358.047,402.838,356.276z" fill="#FFFFFF"/>
</g>
<g>
</g>
<g>
</g>
<g>
</g>
<g>
</g>
<g>
</g>
<g>
</g>
<g>
</g>
<g>
</g>
<g>
</g>
<g>
</g>
<g>
</g>
<g>
</g>
<g>
</g>
<g>
</g>
<g>
</g>
</svg>
