<?xml version="1.0" encoding="iso-8859-1"?>
<!-- Generator: Adobe Illustrator 19.0.0, SVG Export Plug-In . SVG Version: 6.00 Build 0)  -->
<svg xmlns="http://www.w3.org/2000/svg" xmlns:xlink="http://www.w3.org/1999/xlink" version="1.1" id="Capa_1" x="0px" y="0px" viewBox="0 0 480 480" style="enable-background:new 0 0 480 480;" xml:space="preserve" width="512px" height="512px">
<path class="audio-icon" id="XMLID_348_" d="M412.178,103.039c-3.441-4.319-2.729-10.611,1.59-14.052c4.322-3.442,10.612-2.729,14.053,1.59  c0.879,1.103,1.747,2.213,2.606,3.332c3.364,4.38,2.541,10.658-1.839,14.022c-1.816,1.395-3.959,2.07-6.085,2.07  c-3.001,0-5.968-1.345-7.937-3.909C413.778,105.066,412.983,104.049,412.178,103.039z M240,20c48.917,0,95.221,15.71,133.907,45.432  c1.816,1.396,3.959,2.071,6.086,2.071c3,0,5.968-1.345,7.936-3.908c3.365-4.379,2.542-10.657-1.837-14.022  C343.88,17.142,293.362,0,240,0c-5.522,0-10,4.477-10,10S234.478,20,240,20z M327.103,80.032c-5.521,0.122-9.899,4.696-9.778,10.217  c0.12,5.447,4.573,9.78,9.994,9.78c0.074,0,0.148-0.001,0.224-0.002c0.815-0.018,1.635-0.027,2.457-0.027  c5.522,0,9.999-4.477,9.999-10s-4.479-10-10.001-10C329.031,80,328.065,80.011,327.103,80.032z M64.736,399.958  c0.854,0.028,1.714,0.042,2.576,0.042c22.193,0,42.907-9.289,57.562-25.359C139.53,390.711,160.244,400,182.438,400  c22.193,0,42.907-9.289,57.562-25.359C254.655,390.711,275.369,400,297.562,400c22.194,0,42.908-9.289,57.563-25.359  C369.781,390.711,390.494,400,412.688,400c26.72,0,51.293-13.459,65.732-36.004c2.979-4.651,1.623-10.835-3.027-13.814  c-4.65-2.979-10.836-1.623-13.814,3.027C450.833,369.984,432.557,380,412.688,380c-19.864,0-38.139-10.016-48.885-26.792  c-1.839-2.87-5.013-4.606-8.421-4.606h-0.513c-3.408,0-6.582,1.736-8.421,4.606C335.703,369.984,317.427,380,297.562,380  s-38.139-10.016-48.885-26.792c-1.839-2.87-5.013-4.606-8.421-4.606h-0.514c-3.408,0-6.582,1.736-8.421,4.606  C220.577,369.984,202.303,380,182.438,380s-38.14-10.016-48.886-26.792c-1.839-2.87-5.013-4.606-8.421-4.606h-0.513  c-3.408,0-6.582,1.736-8.421,4.606C105.452,369.984,87.176,380,67.312,380c-0.644,0-1.284-0.01-1.924-0.031  c-25.027-0.813-45.387-22.265-45.387-47.818V240c0-92.696,58.636-175.357,144.558-206.715C161.53,48.623,160,64.27,160,80  c0,64.106,24.964,124.375,70.294,169.706S335.893,320,399.999,320c21.799,0,43.435-2.937,64.308-8.729  c5.322-1.477,8.438-6.988,6.962-12.31c-1.478-5.322-6.994-8.439-12.31-6.962c-19.132,5.309-38.969,8.001-58.961,8.001  c-74.285,0-140.088-37.009-179.943-93.557c1.333-40.984,25.915-78.493,63.143-96.022c4.997-2.353,7.141-8.311,4.787-13.308  c-2.352-4.997-8.311-7.139-13.307-4.787c-21.792,10.261-40.3,26.361-53.521,46.559c-8.132,12.423-14.018,26.057-17.486,40.339  C188.538,149.397,180,115.673,180,80c0-19.99,2.692-39.828,8.001-58.961c0.964-3.473-0.016-7.196-2.564-9.745  s-6.271-3.529-9.745-2.564C126.129,22.483,81.439,52.606,49.855,93.551C17.24,135.831,0.001,186.473,0.001,240v92.151  c0,17.557,6.641,34.242,18.698,46.981C30.872,391.993,47.223,399.389,64.736,399.958z M475.392,430.181  c-4.65-2.979-10.836-1.623-13.814,3.027C450.833,449.984,432.557,460,412.688,460c-19.864,0-38.139-10.016-48.885-26.792  c-1.839-2.87-5.013-4.606-8.421-4.606h-0.513c-3.408,0-6.582,1.736-8.421,4.606C335.703,449.984,317.427,460,297.562,460  s-38.139-10.016-48.885-26.792c-1.839-2.87-5.013-4.606-8.421-4.606h-0.514c-3.408,0-6.582,1.736-8.421,4.606  C220.577,449.984,202.303,460,182.438,460s-38.14-10.016-48.886-26.792c-1.839-2.87-5.013-4.606-8.421-4.606h-0.513  c-3.408,0-6.582,1.736-8.421,4.606C105.452,449.984,87.176,460,67.312,460c-19.869,0-38.145-10.016-48.89-26.792  c-2.979-4.649-9.164-6.007-13.814-3.027c-4.65,2.979-6.006,9.164-3.027,13.814C16.02,466.541,40.593,480,67.312,480  c22.193,0,42.907-9.289,57.562-25.359C139.53,470.711,160.244,480,182.438,480c22.193,0,42.907-9.289,57.562-25.359  C254.655,470.711,275.369,480,297.562,480c22.194,0,42.908-9.289,57.563-25.359C369.781,470.711,390.494,480,412.688,480  c26.72,0,51.293-13.459,65.732-36.004C481.398,439.345,480.043,433.16,475.392,430.181z" fill="#FFFFFF"/>
<g>
</g>
<g>
</g>
<g>
</g>
<g>
</g>
<g>
</g>
<g>
</g>
<g>
</g>
<g>
</g>
<g>
</g>
<g>
</g>
<g>
</g>
<g>
</g>
<g>
</g>
<g>
</g>
<g>
</g>
</svg>
