<svg xmlns="http://www.w3.org/2000/svg" viewBox="0 0 44 44" width="512" height="512"><path class="icon" fill-rule="evenodd" d="M3 9a3 3 0 1 0 0 6 3 3 0 0 0 0-6zm0 4a1 1 0 1 1 0-2 1 1 0 0 1 0 2zm0 16a3 3 0 1 0 0 6 3 3 0 0 0 0-6zm0 4a1 1 0 1 1 0-2 1 1 0 0 1 0 2zm38-14H11a3 3 0 1 0 0 6h30a3 3 0 1 0 0-6zm0 4H11a1 1 0 1 1 0-2h30a1 1 0 1 1 0 2zm-30-8h18a3 3 0 1 0 0-6H11a3 3 0 1 0 0 6zm0-4h18a1 1 0 1 1 0 2H11a1 1 0 1 1 0-2zm-8 8a3 3 0 1 0 0 6 3 3 0 0 0 0-6zm0 4a1 1 0 1 1 0-2 1 1 0 0 1 0 2zm34 6H11a3 3 0 1 0 0 6h26a3 3 0 1 0 0-6zm0 4H11a1 1 0 1 1 0-2h26a1 1 0 1 1 0 2z" fill="#FFF"/></svg>