<?xml version="1.0" encoding="iso-8859-1"?>
<!-- Generator: Adobe Illustrator 19.1.0, SVG Export Plug-In . SVG Version: 6.00 Build 0)  -->
<svg xmlns="http://www.w3.org/2000/svg" xmlns:xlink="http://www.w3.org/1999/xlink" version="1.1" id="Capa_1" x="0px" y="0px" viewBox="0 0 535.578 535.578" style="enable-background:new 0 0 535.578 535.578;" xml:space="preserve" width="512px" height="512px">
<g>
	<g>
		<g>
			<path class="icon" d="M231.6,516.278c0,10.658-8.641,19.3-19.3,19.3H106.15c-10.659,0-19.3-8.641-19.3-19.3V19.3     c0-10.659,8.641-19.3,19.3-19.3h106.15c10.659,0,19.3,8.641,19.3,19.3V516.278z" fill="#FFFFFF"/>
			<path class="icon" d="M448.728,516.278c0,10.658-8.641,19.3-19.3,19.3h-106.15c-10.659,0-19.3-8.641-19.3-19.3V19.3     c0-10.659,8.641-19.3,19.3-19.3h106.15c10.659,0,19.3,8.641,19.3,19.3V516.278z" fill="#FFFFFF"/>
		</g>
	</g>
	<g>
	</g>
	<g>
	</g>
	<g>
	</g>
	<g>
	</g>
	<g>
	</g>
	<g>
	</g>
	<g>
	</g>
	<g>
	</g>
	<g>
	</g>
	<g>
	</g>
	<g>
	</g>
	<g>
	</g>
	<g>
	</g>
	<g>
	</g>
	<g>
	</g>
</g>
<g>
</g>
<g>
</g>
<g>
</g>
<g>
</g>
<g>
</g>
<g>
</g>
<g>
</g>
<g>
</g>
<g>
</g>
<g>
</g>
<g>
</g>
<g>
</g>
<g>
</g>
<g>
</g>
<g>
</g>
</svg>
