<svg xmlns="http://www.w3.org/2000/svg" width="512" height="512" viewBox="0 0 460.303 460.303"><path class="icon" d="M175.008 244.596c-10.181 15.488-20.962 30.534-33.825 44.067-30.305 31.879-69.853 40.344-112.522 38.176-38.309-1.95-38.121 57.473 0 59.412 80.166 4.072 136.831-30.564 181.944-89.529-7.429-9.684-14.294-19.438-20.576-28.838-5.17-7.724-10.172-15.62-15.021-23.288zm77.393-47.279c4.118 6.475 8.186 12.842 12.289 19.083 7.521-10.384 15.544-20.408 24.572-29.729 22.79-23.524 48.754-33.19 77.262-35.925-1.809 2.179-3.565 4.398-5.388 6.566-10.415 12.377-12.172 29.833 0 42.01 10.709 10.712 31.574 12.403 42.01 0 16.071-19.093 31.423-38.791 47.494-57.884 10.466-10.519 14.473-28.013 1.519-42.046l-53.466-57.927c-26.035-28.203-67.943 13.909-42.011 42.01l6.941 7.519c-29.162 2.087-57.243 9.506-83.172 26.359-19.372 12.594-35.662 28.779-50.195 46.512 2.919 4.093 5.834 8.252 8.703 12.594 4.587 6.942 9.086 14.019 13.442 20.858z" fill="#FFF"/><path class="icon" d="M403.151 260.978c-5.032-5.972-12.477-8.678-20.048-8.678-8.135 0-16.417 3.133-21.962 8.678-12.172 12.182-10.415 29.635 0 42.01 1.823 2.169 3.58 4.393 5.388 6.571-28.508-2.731-54.477-12.405-77.262-35.927-12.964-13.381-23.901-28.178-34.17-43.478-9.952-14.825-19.266-30.128-29.147-45.095-1.889-2.859-3.829-5.604-5.758-8.371-44.32-63.579-99.747-102.961-178.907-102.961-4.138 0-8.348.109-12.619.322-37.501 1.906-38.288 59.455-1.823 59.455.6 0 1.204-.018 1.823-.048 4.118-.208 8.196-.317 12.248-.317 37.958 0 72.889 9.693 100.27 38.501 16.834 17.715 30.118 38.006 43.127 58.514 6.17 9.725 12.284 19.489 18.687 29.066 5.504 8.236 11.212 16.417 17.179 24.395 17.012 22.729 36.308 43.757 60.271 59.336 25.929 16.854 54.01 24.272 83.172 26.354l-6.941 7.521c-19.891 21.552.117 51.339 22.272 51.339 6.733 0 13.67-2.758 19.738-9.328l53.471-57.925c12.954-14.035 8.947-31.529-1.519-42.046-16.067-19.103-31.417-38.79-47.49-57.888z" fill="#FFF"/></svg>